<svg width="44" height="44" viewBox="0 0 44 44" fill="none" xmlns="http://www.w3.org/2000/svg">
<path d="M15.2112 18H17.7589C18.2009 18 18.6257 18.1712 18.9441 18.4777C20.0528 19.5447 19.2975 21.4186 17.7589 21.4186H15.876C15.4016 21.4186 14.9372 21.5554 14.5384 21.8125L9.11432 25.3103C8.4378 25.7466 7.60047 25.8541 6.83568 25.6029L6.06912 25.3511C5.43121 25.1416 5 24.5461 5 23.8747C5 23.3443 5.27055 22.8505 5.71759 22.565L10.8889 19.2624C12.1798 18.438 13.6795 18 15.2112 18Z" fill="#31103D"/>
<path d="M18.6434 22.0552L18.4064 21.5L16.3534 17.75L11.4041 16.4642C10.5829 16.2508 9.73795 16.1429 8.88953 16.1429H2.60581C2.27568 16.1429 1.95024 16.0648 1.65607 15.9149L1.58151 15.8769C0.679382 15.4175 0.263391 14.3559 0.613137 13.4059C0.88084 12.6787 1.54482 12.1718 2.31687 12.1052L12.4462 11.2321L10.3113 8.76381C9.48702 7.81081 8.49007 7.02217 7.37291 6.43941L4.13783 4.75183C2.25971 3.77212 0.522299 1.8622 2.15913 0.51761C2.76453 0.0203077 4.10412 0.160161 4.82343 0.470646L10.6305 2.97723C12.1847 3.64808 13.5432 4.70251 14.5786 6.0417L15.96 7.82838C16.6486 8.71896 17.5132 9.45819 18.5 10L23.2401 9.29411C23.7432 9.21919 24.257 9.3125 24.7016 9.55956L25.2366 9.85683C25.6705 10.0979 26.2032 10.0741 26.6139 9.79522L26.8857 9.61065C27.2541 9.36046 27.7487 9.40961 28.0607 9.7274C28.361 10.0334 28.8327 10.0917 29.1986 9.86809L29.657 9.58789C30.0793 9.32975 30.5975 9.28202 31.0599 9.45865L31.8078 9.74434C32.6513 10.0666 33.3213 10.7276 33.6547 11.5669L36.1116 17.75L40.7736 27.2481C41.0516 27.8145 41.4457 28.3159 41.9303 28.7198C42.7033 29.3641 43.2377 30.2492 43.4477 31.2334L43.4975 31.467C43.8162 32.96 43.4605 34.5176 42.5253 35.7243L40.2786 38.6231C37.7639 41.8679 33.5216 43.2462 29.58 42.099L28.8833 41.8962C27.9802 41.6334 27.1187 41.2444 26.3243 40.7409L20.4987 37.0484C19.9234 36.6838 19.3123 36.3788 18.6751 36.1384L11.0963 33.2791C10.4785 33.046 9.83915 32.8747 9.1876 32.7676L5.11307 32.0981C4.8623 32.0569 4.6058 32.0666 4.35882 32.1265L3.69248 32.2881C2.53985 32.5677 1.52799 31.4733 1.89685 30.3461C2.0286 29.9434 2.32304 29.6144 2.70864 29.439L5.84203 28.0131C7.96872 27.0454 10.3955 26.975 12.5748 27.8179L12.9392 27.9588C13.1943 28.0575 13.458 28.1325 13.7269 28.1828C17.2249 28.8373 20.0404 25.3283 18.6434 22.0552Z" fill="#1B0024"/>
<path d="M22.5 14L24 13.5L26.5 22.5L22.5 14Z" fill="white" fill-opacity="0.25"/>
<path d="M29.5 20L26.5 12H27.5L29.5 20Z" fill="white" fill-opacity="0.25"/>
<path d="M32 17C31.3333 15.5 30 12.4 30 12L30.5 11.5L32 17Z" fill="white" fill-opacity="0.25"/>
</svg>
