<svg width="93" height="93" viewBox="0 0 93 93" fill="none" xmlns="http://www.w3.org/2000/svg">
<circle cx="46.5" cy="46.5" r="46.5" fill="#11001F"/>
<path d="M36.0497 40.3636H40.0239C40.6467 40.3636 41.2453 40.6049 41.694 41.0368C43.2562 42.5402 42.192 45.1808 40.0239 45.1808H37.3708C36.7022 45.1808 36.0479 45.3735 35.486 45.7358L27.8429 50.6645C26.8896 51.2793 25.7098 51.4308 24.6321 51.0768L23.5519 50.7221C22.6531 50.4268 22.0455 49.5877 22.0455 48.6416C22.0455 47.8942 22.4267 47.1984 23.0566 46.7961L30.6673 41.9357C32.2748 40.9091 34.1423 40.3636 36.0497 40.3636Z" fill="#C9C9C9"/>
<path d="M41.2702 46.0778L40.9363 45.2955L38.0434 40.0114L30.5634 38.0681C29.7423 37.8547 28.8973 37.7468 28.0489 37.7468H18.6718C18.2066 37.7468 17.7481 37.6367 17.3336 37.4256L17.2285 37.3721C15.9573 36.7246 15.3711 35.2288 15.864 33.8901C16.2412 32.8654 17.1768 32.1512 18.2647 32.0574L32.5378 30.8271L29.0192 26.7589C28.1949 25.8059 27.198 25.0173 26.0808 24.4345L20.8306 21.6958C18.1841 20.3153 15.736 17.624 18.0424 15.7294C18.8955 15.0286 20.7831 15.2257 21.7966 15.6632L30.9487 19.6136C32.5029 20.2844 33.8613 21.3389 34.8968 22.6781L37.6868 26.2865C38.5267 27.3728 39.5813 28.2745 40.7849 28.9354L41.0682 29.0909L47.7474 28.0962C48.4563 27.9907 49.1803 28.1222 49.8068 28.4703L50.5607 28.8892C51.1721 29.2289 51.9227 29.1953 52.5014 28.8024L52.8844 28.5423C53.4035 28.1897 54.1005 28.259 54.5401 28.7068C54.9633 29.1379 55.6279 29.2201 56.1434 28.905L56.7894 28.5102C57.3845 28.1465 58.1147 28.0792 58.7662 28.3281L59.82 28.7307C61.0087 29.1847 61.9527 30.1162 62.4226 31.2988L65.8845 40.0114L72.4537 53.3951C72.8454 54.1931 73.4007 54.8997 74.0836 55.4688C75.1729 56.3767 75.9258 57.6239 76.2218 59.0107L76.292 59.3399C76.741 61.4437 76.2397 63.6385 74.922 65.3388L70.0516 71.6231C67.5368 74.8679 63.2945 76.2462 59.3529 75.099L55.1423 73.8735C54.2392 73.6107 53.3777 73.2217 52.5833 72.7182L43.5305 66.9802C42.9552 66.6156 42.3442 66.3107 41.7069 66.0702L30.2556 61.7498C29.6379 61.5168 28.9985 61.3454 28.347 61.2384L22.2048 60.2292C21.8514 60.1712 21.49 60.1847 21.142 60.2691L20.203 60.4969C18.5789 60.8908 17.1531 59.3488 17.6728 57.7604C17.8585 57.193 18.2734 56.7294 18.8167 56.4822L24.0904 54.0825C26.5381 52.9687 29.3312 52.8876 31.8393 53.8577L33.2325 54.3965C33.592 54.5356 33.9635 54.6412 34.3424 54.7121C39.2715 55.6343 43.2387 50.6899 41.2702 46.0778Z" fill="white"/>
<path d="M46.7045 34.7273L48.8182 34.0228L52.3409 46.7046L46.7045 34.7273Z" fill="#C9C9C9"/>
<path d="M56.5682 43.1818L52.3409 31.9091H53.75L56.5682 43.1818Z" fill="#C9C9C9"/>
<path d="M60.0909 38.9545C59.1515 36.8409 57.2727 32.4727 57.2727 31.9091L57.9773 31.2045L60.0909 38.9545Z" fill="#C9C9C9"/>
</svg>
