<svg width="58" height="58" viewBox="0 0 58 58" fill="none" xmlns="http://www.w3.org/2000/svg">
<rect width="58" height="58" rx="20" fill="#1B0024"/>
<path d="M22.2112 25H24.7589C25.2009 25 25.6257 25.1712 25.9441 25.4777C27.0528 26.5447 26.2975 28.4186 24.7589 28.4186H22.8761C22.4016 28.4186 21.9372 28.5554 21.5385 28.8125L16.1143 32.3103C15.4378 32.7466 14.6005 32.8541 13.8357 32.6029L13.0691 32.3511C12.4312 32.1416 12 31.5461 12 30.8747C12 30.3443 12.2706 29.8505 12.7176 29.565L17.8889 26.2624C19.1798 25.438 20.6795 25 22.2112 25Z" fill="#D6D6D6"/>
<path d="M25.6434 29.0552L25.4064 28.5L23.3534 24.75L18.4041 23.4642C17.5829 23.2508 16.7379 23.1429 15.8895 23.1429H9.60581C9.27568 23.1429 8.95024 23.0648 8.65607 22.9149L8.58151 22.8769C7.67938 22.4175 7.26339 21.3559 7.61314 20.4059C7.88084 19.6787 8.54482 19.1718 9.31687 19.1052L19.4462 18.2321L17.3113 15.7638C16.487 14.8108 15.4901 14.0222 14.3729 13.4394L11.1378 11.7518C9.25971 10.7721 7.5223 8.8622 9.15913 7.51761C9.76453 7.02031 11.1041 7.16016 11.8234 7.47065L17.6305 9.97723C19.1847 10.6481 20.5432 11.7025 21.5786 13.0417L22.96 14.8284C23.6486 15.719 24.5132 16.4582 25.5 17L30.2401 16.2941C30.7432 16.2192 31.257 16.3125 31.7016 16.5596L32.2366 16.8568C32.6705 17.0979 33.2032 17.0741 33.6139 16.7952L33.8857 16.6106C34.2541 16.3605 34.7487 16.4096 35.0607 16.7274C35.361 17.0334 35.8327 17.0917 36.1986 16.8681L36.657 16.5879C37.0793 16.3298 37.5975 16.282 38.0599 16.4587L38.8078 16.7443C39.6513 17.0666 40.3213 17.7276 40.6547 18.5669L43.1116 24.75L47.7736 34.2481C48.0516 34.8145 48.4457 35.3159 48.9303 35.7198C49.7033 36.3641 50.2377 37.2492 50.4477 38.2334L50.4975 38.467C50.8162 39.96 50.4605 41.5176 49.5253 42.7243L47.2786 45.6231C44.7639 48.8679 40.5216 50.2462 36.58 49.099L35.8833 48.8962C34.9802 48.6334 34.1187 48.2444 33.3243 47.7409L27.4987 44.0484C26.9234 43.6838 26.3123 43.3788 25.6751 43.1384L18.0963 40.2791C17.4785 40.046 16.8392 39.8747 16.1876 39.7676L12.1131 39.0981C11.8623 39.0569 11.6058 39.0666 11.3588 39.1265L10.6925 39.2881C9.53985 39.5677 8.52799 38.4733 8.89685 37.3461C9.0286 36.9434 9.32304 36.6144 9.70864 36.439L12.842 35.0131C14.9687 34.0454 17.3955 33.975 19.5748 34.8179L19.9392 34.9588C20.1943 35.0575 20.458 35.1325 20.7269 35.1828C24.2249 35.8373 27.0404 32.3283 25.6434 29.0552Z" fill="white"/>
<path d="M29.5 21L31 20.5L33.5 29.5L29.5 21Z" fill="#B0B0B0"/>
<path d="M36.5 27L33.5 19H34.5L36.5 27Z" fill="#B0B0B0"/>
<path d="M39 24C38.3333 22.5 37 19.4 37 19L37.5 18.5L39 24Z" fill="#B0B0B0"/>
</svg>
